<svg width="24" height="24" viewBox="0 0 24 24" fill="none" xmlns="http://www.w3.org/2000/svg">
  <!-- Cuerpo del pollo -->
  <path d="M12 4C8 4 6 6 6 10C6 12 7 14 8 15C9 16 10 17 12 17C14 17 15 16 16 15C17 14 18 12 18 10C18 6 16 4 12 4Z" fill="currentColor"/>
  
  <!-- Cabeza del pollo -->
  <circle cx="9" cy="8" r="2" fill="currentColor"/>
  
  <!-- Ojo -->
  <circle cx="8.5" cy="7.5" r="0.5" fill="white"/>
  
  <!-- Pico -->
  <path d="M7 8L6 9L7 10L8 9L7 8Z" fill="#FFA500"/>
  
  <!-- Cresta -->
  <path d="M9 6L8 4L9 5L10 4L9 6Z" fill="#FF0000"/>
  
  <!-- Patas -->
  <path d="M10 17L9 19L10 20L11 19L10 17Z" fill="#FFA500"/>
  <path d="M14 17L13 19L14 20L15 19L14 17Z" fill="#FFA500"/>
  
  <!-- Alas -->
  <path d="M6 12L4 10L6 11L8 10L6 12Z" fill="currentColor"/>
  <path d="M18 12L20 10L18 11L16 10L18 12Z" fill="currentColor"/>
  
  <!-- Cola -->
  <path d="M12 17L10 19L12 20L14 19L12 17Z" fill="currentColor"/>
</svg>
