<svg width="200" height="103" viewBox="0 0 200 103" fill="none" xmlns="http://www.w3.org/2000/svg">
<g clip-path="url(#clip0_3084_1809)">
<path d="M99.9984 0C44.7714 0 0 23.0571 0 51.5C0 79.9429 44.7714 103 99.9984 103C155.225 103 199.997 79.9429 199.997 51.5C199.997 23.0571 155.229 0 99.9984 0ZM186.838 67.2049C181.779 73.3652 174.601 78.2092 167.567 81.8295C163.089 84.1368 158.411 86.084 153.655 87.738C148.36 89.58 142.938 91.0683 137.464 92.2634C125.202 94.934 112.544 96.1546 100.002 96.1546C87.4587 96.1546 74.8009 94.934 62.5389 92.2634C57.0622 91.0715 51.6397 89.58 46.348 87.738C41.5894 86.084 36.9137 84.1368 32.436 81.8295C25.4017 78.2061 18.2239 73.362 13.1652 67.2049C9.4694 62.7019 6.86188 57.4117 6.86188 51.5C6.86188 45.5883 9.4694 40.2981 13.1652 35.795C18.2239 29.6348 25.4017 24.7907 32.436 21.1673C36.9137 18.86 41.5926 16.9128 46.348 15.2588C51.6429 13.4168 57.0653 11.9285 62.5389 10.7334C74.8009 8.06281 87.4587 6.84223 100.002 6.84223C112.544 6.84223 125.202 8.05962 137.464 10.7334C142.941 11.9253 148.364 13.4168 153.655 15.2588C158.411 16.9128 163.089 18.86 167.567 21.1673C174.601 24.7907 181.782 29.6348 186.838 35.795C190.534 40.2981 193.141 45.5883 193.141 51.5C193.141 57.4117 190.534 62.7019 186.838 67.2049Z" fill="#DA2919"/>
<path d="M51.1896 47.8415C51.3939 47.7522 52.7311 47.7968 52.7311 47.7968L52.8046 61.7809C52.8046 61.7809 56.4366 61.8542 58.4696 61.7203C60.4994 61.5865 62.9346 60.6686 66.0113 58.2689C69.088 55.866 71.5327 52.4019 71.2167 48.0295C70.9008 43.6571 66.64 41.1777 59.66 41.3721C52.6801 41.5697 49.3162 43.5615 49.3162 43.5615L49.3832 48.3354C49.3832 48.3354 49.9034 48.2908 50.4204 48.2462C50.9375 48.2016 50.9854 47.9307 51.1864 47.8415H51.1896ZM57.493 46.8312C57.493 46.8312 58.2653 46.6113 59.3345 46.4743C60.8122 46.3086 62.7942 46.2002 64.3293 47.5164C65.8645 48.8326 66.0975 51.0156 64.0804 53.5842C62.0601 56.1528 58.7409 56.5257 58.1058 56.6436C57.4706 56.7615 57.493 56.1592 57.493 56.1592V46.8344V46.8312Z" fill="#DA2919"/>
<path d="M79.5819 61.7968C83.9161 62.2908 88.0683 58.8043 89.5843 55.2287C91.1003 51.653 90.8226 48.584 90.3598 45.8847C89.8971 43.1854 89.5428 41.3849 89.0896 41.0311C88.6364 40.6774 88.2662 40.8335 87.8257 41.3912C87.4778 41.8884 86.1533 41.8884 84.9374 41.404C83.7182 40.9196 80.2394 40.0591 76.6999 42.2421C73.1605 44.4251 70.7763 50.2189 71.9732 54.5594C73.17 58.8968 75.2509 61.306 79.5819 61.8V61.7968ZM79.7511 46.1556C81.982 45.0052 83.3129 46.0887 83.6735 46.2927C84.1203 46.538 85.0937 46.2735 85.0937 46.2735C85.0937 46.2735 86.6768 49.1385 84.9948 53.2687C83.1182 57.4021 78.267 56.94 77.1435 53.5811C76.1829 50.2221 77.5201 47.3029 79.7511 46.1556Z" fill="#DA2919"/>
<path d="M106.892 51.5382C108.536 50.8307 110.572 48.9058 110.869 46.4519C111.076 44.7342 110.24 42.513 107.744 41.6238C101.68 39.4663 93.6791 42.3536 92.5077 42.6691C91.3364 42.9846 91.4513 43.5583 91.4513 43.5583C91.4513 43.5583 91.5471 46.0313 91.5279 46.6973C91.5088 47.3634 91.6875 47.6789 91.9843 47.6789C92.2811 47.6789 92.9322 47.6789 93.3184 47.6247C93.7046 47.5737 93.5642 48.5362 93.5642 48.5362C93.5642 48.5362 93.5099 60.3021 93.4939 60.812C93.478 61.3219 93.9567 61.2455 93.9567 61.2455H98.6962C99.2611 61.2455 99.2196 60.9331 99.2196 60.9331C99.2196 60.9331 99.2292 55.5154 99.2196 55.0087C99.21 54.502 99.3377 54.553 99.4143 54.5626C99.4909 54.5721 99.6856 54.7729 99.6856 54.7729C99.6856 54.7729 106.768 61.0989 107.189 61.4622C107.61 61.8223 108.025 61.4845 108.025 61.4845C108.025 61.4845 110.084 59.1453 110.435 58.543C110.789 57.9407 110.208 57.657 109.41 57.0547C108.616 56.4524 107.499 55.7035 106.091 54.467C104.68 53.2304 104.562 52.7875 104.562 52.7875C104.4 52.4688 104.508 52.5612 106.889 51.5382H106.892ZM104.422 47.8351C103.168 49.3042 99.992 49.6898 99.3441 49.7854C98.6962 49.8842 98.776 49.2755 98.776 49.2755L98.6196 45.8305C98.6196 45.8305 98.5781 45.4672 99.459 45.3302C100.34 45.1931 101.897 44.9095 103.203 45.1485C104.384 45.3875 105.676 46.3659 104.419 47.8351H104.422Z" fill="#DA2919"/>
<path d="M119.509 45.3844C119.62 45.3334 120.329 45.4322 120.632 45.327C120.935 45.2219 120.843 45.053 121.401 45.0657C121.96 45.0817 126.112 45.0466 126.112 45.0466L126.999 40.8527C126.999 40.8527 120.249 40.8813 116.815 41.1204C113.381 41.3594 111.737 41.7482 111.737 41.7482C111.737 41.7482 111.437 41.8087 111.437 42.7329C111.437 43.6571 111.469 45.684 111.469 45.684C111.469 45.684 111.456 46.0313 111.897 46.0313C112.337 46.0313 113.725 46.009 113.725 46.009L113.738 48.9346C113.738 48.9346 113.738 49.1449 113.087 49.1162C112.433 49.0876 112.394 49.2692 112.404 49.8556C112.414 50.442 112.43 52.829 112.43 52.829C112.43 52.829 112.439 53.0871 112.688 53.0775C112.937 53.068 113.706 53.068 113.706 53.068V60.9173C113.706 60.9173 113.652 61.1786 114.057 61.1786C114.463 61.1786 124.459 61.032 126.007 61.0925C127.558 61.1499 127.58 61.0192 127.58 61.0192C127.58 61.0192 127.733 61.0129 127.746 60.5125C127.759 60.0122 127.759 56.3632 127.759 56.3632C127.759 56.3632 127.72 55.968 127.27 55.9585C126.82 55.9521 119.218 55.8788 119.218 55.8788V52.4625C119.218 52.4625 120.645 52.4816 120.961 52.4147C121.277 52.3477 121.551 52.2489 121.727 52.2489C121.902 52.2489 122.301 52.3477 122.381 52.4816C122.458 52.6154 122.54 52.5868 122.946 52.6154C123.351 52.6473 123.492 52.6951 123.578 52.3573C123.664 52.0195 124.366 48.6701 124.366 48.6701C124.366 48.6701 124.567 48.1283 123.881 48.0104C123.192 47.8925 122.212 47.9275 121.998 48.0295C121.787 48.1315 121.743 48.2048 121.219 48.1761C120.696 48.1474 119.247 48.1379 119.247 48.1379L119.221 45.668C119.221 45.668 119.39 45.4354 119.502 45.3876L119.509 45.3844Z" fill="#DA2919"/>
<path d="M134.975 39.4186L130.255 39.4281C130.255 39.4281 129.683 39.5142 129.233 40.9005C128.834 42.3728 128.965 43.3798 128.943 44.081C128.92 44.7789 129.667 44.6164 129.667 44.6164L131.675 44.5399C131.675 44.5399 132.051 43.5424 132.868 42.3824C133.685 41.2223 134.793 40.3651 135.061 40.2025C135.329 40.04 135.329 39.989 135.32 39.699C135.31 39.409 134.975 39.4186 134.975 39.4186Z" fill="#DA2919"/>
<path d="M148.137 46.2895C148.724 46.6496 149.139 46.6591 149.621 46.6432C150.103 46.6273 149.975 46.3436 150.023 45.5501C150.081 43.9312 150.444 43.45 150.46 41.8342C150.476 41.5697 150.272 41.3721 149.691 41.2701C149.11 41.1713 145.833 40.3682 140.876 40.824C136.146 41.5315 133.127 44.3996 133.175 47.3443C133.226 50.289 134.234 51.7836 137.302 53.0966C137.302 53.0966 138.447 53.6862 141.227 53.9539C144.007 54.2216 144.639 54.7156 144.696 55.2478C144.853 56.701 139.459 56.6086 138.227 56.4078C136.998 56.207 136.941 56.1847 136.542 55.9712C136.146 55.7577 135.945 55.8214 135.45 56.6978C134.953 57.5742 134.209 59.5915 134.257 60.2034C134.308 60.8153 134.423 60.7005 135.367 60.8822C136.312 61.0638 142.316 61.7044 145.421 60.5667C148.526 59.429 150.141 58.3327 150.639 55.0438C151.08 51.3152 147.69 49.8843 144.262 49.6198C143.219 49.4572 137.675 49.0621 137.994 47.0671C138.326 44.8235 146.394 45.5788 148.137 46.2863V46.2895Z" fill="#DA2919"/>
<path d="M57.4579 66.5039C56.7015 66.2871 56.3632 63.5974 53.3599 63.4413C52.9163 63.419 49.5492 63.5209 48.6364 67.5587C47.7236 71.5997 51.2663 73.0943 51.2663 73.0943C51.2663 73.0943 48.9939 73.9803 48.7609 76.3513C48.5247 78.7224 49.5588 81.1125 52.1184 81.581C54.6781 82.0495 57.0622 81.5651 59.0218 77.1321C60.9782 72.7023 61.8814 72.7055 61.8814 72.7055H82.2947C82.2947 72.7055 82.132 73.9102 82.9905 74.9077C83.849 75.9083 86.3608 75.663 86.3608 75.663L86.4438 77.9894C86.4438 77.9894 86.9736 78.1519 90.0375 78.0085C93.1014 77.8651 95.444 75.3984 95.444 75.3984C105.335 87.1803 125.477 89.9784 140.053 86.7374C154.941 83.4294 151.07 66.8672 151.07 66.8672L57.4643 66.5039H57.4579Z" fill="#DA2919"/>
<path d="M151.546 16.575C149.583 16.575 147.993 18.2799 147.993 20.3801C147.993 21.9608 148.89 23.3152 150.17 23.892C145.734 26.7188 144.661 26.961 139.628 27.1905C135.894 27.3594 133.127 27.49 129.37 25.1763C128.675 24.7493 128.011 24.2012 127.446 23.6785C128.553 23.0348 129.307 21.7759 129.307 20.3323C129.307 18.2289 127.717 16.5272 125.754 16.5272C123.792 16.5272 122.202 18.2321 122.202 20.3323C122.202 21.8715 123.054 23.1973 124.283 23.7964C123.772 24.335 123.204 24.8513 122.697 25.1254C121.347 25.852 118.439 27.5697 112.937 27.2351C107.435 26.8973 105.37 25.8456 103.969 24.9118C103.464 24.574 102.912 24.0418 102.418 23.5C103.48 22.8435 104.195 21.6102 104.195 20.2016C104.195 18.0983 102.606 16.3965 100.643 16.3965C98.6803 16.3965 97.0909 18.1015 97.0909 20.2016C97.0909 21.8333 98.0484 23.2228 99.392 23.7646C98.5176 24.5039 94.0749 27.9553 87.7492 27.5824C80.6735 27.165 79.0841 25.9284 77.3925 24.6824C76.9393 24.3478 76.5595 24.0195 76.2436 23.7199C77.5489 23.159 78.4713 21.7887 78.4713 20.1857C78.4713 18.0823 76.8819 16.3806 74.9191 16.3806C72.9562 16.3806 71.3668 18.0855 71.3668 20.1857C71.3668 22.0914 72.6754 23.669 74.3797 23.9494C74.3637 23.9685 74.351 23.9845 74.335 24.0004C73.9073 24.4434 67.7955 27.831 62.4496 27.4836C57.1037 27.1363 54.6749 26.2439 51.8248 24.4816C51.3461 24.1852 50.9216 23.892 50.5514 23.6084C51.4259 22.9137 51.994 21.8014 51.994 20.5458C51.994 18.4425 50.4046 16.7407 48.4418 16.7407C46.4789 16.7407 44.8895 18.4457 44.8895 20.5458C44.8895 22.0691 45.7257 23.3853 46.9321 23.9908L46.8651 24.1565L55.5239 35.2278H144.55L152.366 24.8927L152.573 24.0195C154.029 23.5447 155.088 22.0946 155.088 20.3801C155.088 18.2767 153.499 16.575 151.536 16.575H151.546Z" fill="#DA2919"/>
</g>
<defs>
<clipPath id="clip0_3084_1809">
<rect width="200" height="103" fill="white"/>
</clipPath>
</defs>
</svg>
