<svg width="32" height="32" viewBox="0 0 32 32" fill="none" xmlns="http://www.w3.org/2000/svg">
<path d="M26.7354 14.9994H20.4549L21.1094 11.5023C21.1642 11.2017 20.9675 10.9229 20.6733 10.8697C20.3791 10.8158 20.0952 11.0093 20.041 11.2987L19.6157 13.5406C19.6157 13.5299 19.6157 13.5193 19.6049 13.5193C19.2451 12.9079 18.7765 12.3498 18.2201 11.8675C17.9909 11.6745 17.6528 11.6852 17.4458 11.9107C17.2497 12.1362 17.2714 12.4682 17.5006 12.6724C17.9692 13.0801 18.362 13.5518 18.667 14.056C18.8523 14.3561 18.9943 14.678 19.1032 15H16.5519C16.508 14.8716 16.4647 14.7319 16.4099 14.6029C15.7337 12.8759 14.9379 11.5994 14 10.7844C14.1089 10.6235 14.2292 10.4518 14.3814 10.2909C14.687 9.93696 15.6573 9.26109 16.8238 9.48658C16.7582 7.40573 19.2223 5.63559 21.5775 6.06466C23.9326 6.49373 25.59 9.0143 24.761 10.9342C25.9383 11.1271 26.5928 12.1036 26.7564 12.554C27.1162 13.5086 27.0506 14.2916 26.7348 14.9994H26.7354Z" fill="black"/>
<path d="M10.8445 5.93575C10.3972 5.87244 9.86267 6.07285 9.46958 7.11497C9.30585 6.0833 8.36739 4.66185 7.26579 5.07254C6.15276 5.48324 6.43689 7.14692 7.02561 8.02059C6.02214 7.48384 5.48759 7.68367 5.19263 8.02059C4.64725 8.66306 5.32326 9.96833 6.42545 11C6.98167 10.3157 7.77806 9.78941 8.82548 9.39963C9.58937 9.11558 10.2877 8.97848 10.9637 8.97848C11.3128 8.97848 11.6403 9.00985 11.9677 9.08363C12.1206 7.55703 11.7275 6.05135 10.8439 5.93575H10.8445Z" fill="black"/>
<path d="M16 14.9879C15.8016 14.4545 15.5911 13.9714 15.3558 13.5374L12.7045 14.5538C12.6301 14.5786 12.5557 14.5908 12.4813 14.5908C12.2333 14.5908 11.998 14.4418 11.9115 14.1942C11.7875 13.8722 11.9484 13.5126 12.2581 13.3885L14.7606 12.4338C13.0263 9.75553 11.032 9.64414 9.02498 10.413C7.19155 11.1195 5.84143 12.3841 6.01503 15H15.9994V14.9879H16Z" fill="black"/>
<path d="M24 16C23.0712 18.2693 20.5 23 16.5 22.5C12 23 9.9288 18.2693 9 16H6C7.16114 21.161 11.4285 25 16.5 25C21.5715 25 25.8389 21.161 27 16H24Z" fill="black"/>
</svg>
