<svg width="20" height="20" viewBox="0 0 20 20" fill="none" xmlns="http://www.w3.org/2000/svg">
<path d="M10 4.80468e-07C8.88727 -0.000464513 7.80057 0.336594 6.8834 0.966662C5.96624 1.59673 5.26176 2.49017 4.863 3.529C4.44818 3.40947 4.02765 3.31068 3.603 3.233C2.72963 3.07482 1.84357 2.99716 0.956 3.001L0.784 3.005L0.736 3.007L0.716 3.008C0.5315 3.01807 0.357211 3.0959 0.226555 3.22656C0.0958987 3.35721 0.0180726 3.5315 0.0079999 3.716L0.00500011 3.785C0.00300011 3.825 0.00166659 3.882 0.000999928 3.956C-0.00100007 4.102 6.33299e-08 4.311 0.00900006 4.568C0.0290001 5.082 0.086 5.796 0.233 6.603C0.367 7.338 0.581 8.168 0.923 9H0.746C0.548149 9 0.3584 9.0786 0.218498 9.2185C0.0785961 9.3584 0 9.54815 0 9.746V10C0 11.045 0.16 12.053 0.458 13H19.542C19.8464 12.0291 20.0008 11.0175 20 10V9.746C20 9.54815 19.9214 9.3584 19.7815 9.2185C19.6416 9.0786 19.4519 9 19.254 9H18.997L18.999 8.875C18.9984 7.79251 18.6379 6.74093 17.9743 5.88574C17.3106 5.03055 16.3815 4.42029 15.333 4.151C15.0327 2.96413 14.345 1.91137 13.3789 1.15948C12.4127 0.407593 11.2233 -0.000445209 9.999 4.80468e-07M9.999 1.5C10.7989 1.49999 11.5805 1.73981 12.2427 2.18849C12.9049 2.63717 13.4174 3.27409 13.714 4.017C12.8541 4.08948 12.0289 4.38866 11.3223 4.88405C10.6158 5.37944 10.0532 6.05333 9.692 6.837C9.42235 6.43743 9.1153 6.06441 8.775 5.723C8.026 4.974 7.155 4.433 6.273 4.04C6.56669 3.29089 7.07947 2.64776 7.74437 2.19462C8.40927 1.74148 9.19537 1.4994 10 1.5M17.499 8.875C17.499 8.917 17.498 8.95867 17.496 9H10.767L10.749 8.95V8.875C10.749 7.9799 11.1046 7.12145 11.7375 6.48852C12.3705 5.85558 13.2289 5.5 14.124 5.5C15.0191 5.5 15.8775 5.85558 16.5105 6.48852C17.1434 7.12145 17.499 7.9799 17.499 8.875ZM7.715 6.784C8.358 7.426 8.824 8.199 9.16 9H7.06L5.28 7.22C5.21134 7.14631 5.12854 7.08721 5.03654 7.04622C4.94454 7.00523 4.84523 6.98319 4.74452 6.98141C4.64382 6.97963 4.54379 6.99816 4.4504 7.03588C4.35701 7.0736 4.27218 7.12974 4.20096 7.20096C4.12974 7.27218 4.0736 7.35701 4.03588 7.4504C3.99816 7.54379 3.97963 7.64382 3.98141 7.74452C3.98319 7.84523 4.00523 7.94454 4.04622 8.03654C4.08721 8.12854 4.14631 8.21134 4.22 8.28L4.94 9H2.57C2.13 8.124 1.866 7.187 1.71 6.333C1.60055 5.73113 1.53371 5.12228 1.51 4.511V4.509C1.97 4.526 2.612 4.577 3.333 4.709C4.793 4.976 6.492 5.559 7.715 6.784ZM1.067 14.5C1.90053 16.1541 3.1771 17.5443 4.7544 18.5154C6.33169 19.4865 8.14772 20.0005 10 20C11.8523 20.0005 13.6683 19.4865 15.2456 18.5154C16.8229 17.5443 18.0995 16.1541 18.933 14.5H1.067Z" fill="#FFFCFA"/>
</svg>
